<svg width="276" height="28" viewBox="0 0 276 28" fill="none" xmlns="http://www.w3.org/2000/svg">
<g clip-path="url(#clip0_1_34)">
<mask id="mask0_1_34" style="mask-type:luminance" maskUnits="userSpaceOnUse" x="0" y="0" width="36" height="28">
<path d="M35.0306 0H0V28H35.0306V0Z" fill="white"/>
</mask>
<g mask="url(#mask0_1_34)">
<path d="M0 5.95V22.05C0 25.3361 2.66624 28 5.95521 28H29.0754C32.3644 28 35.0306 25.3361 35.0306 22.05V5.95C35.0306 2.66391 32.3644 0 29.0754 0H5.95521C2.66624 0 0 2.66391 0 5.95Z" fill="#111111"/>
<path d="M0 5.95V22.05C0 25.3361 2.66624 28 5.95521 28H29.0754C32.3644 28 35.0306 25.3361 35.0306 22.05V5.95C35.0306 2.66391 32.3644 0 29.0754 0H5.95521C2.66624 0 0 2.66391 0 5.95Z" fill="url(#paint0_linear_1_34)"/>
<path d="M8.75764 7C8.75764 6.0335 7.97345 5.25 7.00611 5.25C6.03877 5.25 5.25458 6.0335 5.25458 7C5.25458 7.9665 6.03877 8.75 7.00611 8.75C7.97345 8.75 8.75764 7.9665 8.75764 7Z" fill="url(#paint1_linear_1_34)"/>
<path d="M8.75764 7C8.75764 6.0335 7.97345 5.25 7.00611 5.25C6.03877 5.25 5.25458 6.0335 5.25458 7C5.25458 7.9665 6.03877 8.75 7.00611 8.75C7.97345 8.75 8.75764 7.9665 8.75764 7Z" fill="url(#paint2_linear_1_34)"/>
<path d="M8.75764 7C8.75764 6.0335 7.97345 5.25 7.00611 5.25C6.03877 5.25 5.25458 6.0335 5.25458 7C5.25458 7.9665 6.03877 8.75 7.00611 8.75C7.97345 8.75 8.75764 7.9665 8.75764 7Z" fill="url(#paint3_linear_1_34)"/>
<path d="M8.75764 20.9889C8.75764 20.0224 7.97345 19.2389 7.00611 19.2389C6.03877 19.2389 5.25458 20.0224 5.25458 20.9889C5.25458 21.9554 6.03877 22.7389 7.00611 22.7389C7.97345 22.7389 8.75764 21.9554 8.75764 20.9889Z" fill="url(#paint4_linear_1_34)"/>
<path d="M29.776 14C29.776 13.0335 28.9918 12.25 28.0245 12.25C27.0572 12.25 26.273 13.0335 26.273 14C26.273 14.9665 27.0572 15.7501 28.0245 15.7501C28.9918 15.7501 29.776 14.9665 29.776 14Z" fill="url(#paint5_linear_1_34)"/>
<path d="M29.776 14C29.776 13.0335 28.9918 12.25 28.0245 12.25C27.0572 12.25 26.273 13.0335 26.273 14C26.273 14.9665 27.0572 15.7501 28.0245 15.7501C28.9918 15.7501 29.776 14.9665 29.776 14Z" fill="url(#paint6_linear_1_34)"/>
<path d="M28.0245 5.25H14.0122C13.0449 5.25 12.2607 6.0335 12.2607 7C12.2607 7.9665 13.0449 8.75 14.0122 8.75H28.0245C28.9918 8.75 29.776 7.9665 29.776 7C29.776 6.0335 28.9918 5.25 28.0245 5.25Z" fill="url(#paint7_linear_1_34)"/>
<path d="M28.0245 19.2389H14.0122C13.0449 19.2389 12.2607 20.0224 12.2607 20.9889C12.2607 21.9554 13.0449 22.7389 14.0122 22.7389H28.0245C28.9918 22.7389 29.776 21.9554 29.776 20.9889C29.776 20.0224 28.9918 19.2389 28.0245 19.2389Z" fill="url(#paint8_linear_1_34)"/>
<path d="M21.0184 12.25H7.00611C6.03877 12.25 5.25458 13.0335 5.25458 14C5.25458 14.9665 6.03877 15.7501 7.00611 15.7501H21.0184C21.9857 15.7501 22.7699 14.9665 22.7699 14C22.7699 13.0335 21.9857 12.25 21.0184 12.25Z" fill="url(#paint9_linear_1_34)"/>
</g>
<path d="M49.65 23.2815C53.0633 23.2815 55.4691 21.3412 55.4691 18.371C55.4932 15.8084 53.9473 14.3227 51.3688 13.3888L49.6008 12.742C47.8088 12.0953 46.949 11.5446 46.949 10.2991C46.949 9.05355 48.2256 8.33526 49.6993 8.33526C51.0744 8.33526 52.1301 8.88598 53.0141 9.91596L55.003 8.02361C53.7263 6.51448 51.8851 5.70013 49.7244 5.70013C46.4829 5.70013 44.0531 7.52092 44.0531 10.4912C44.0531 12.8147 45.4031 14.2992 48.1775 15.2822L50.0931 15.9525C51.7626 16.5513 52.5732 17.3176 52.5732 18.5396C52.5732 19.8085 51.395 20.6475 49.7496 20.6475C48.055 20.6475 46.6065 19.8331 45.6985 18.4681L43.4394 20.2163C44.4688 22.0595 46.8505 23.2815 49.65 23.2815ZM63.2879 23.2335C65.8666 23.2335 67.781 22.179 68.886 20.4553L66.8238 19.0177C66.1608 20.0722 65.0559 20.8385 63.3131 20.8385C61.2509 20.8385 59.6547 19.5695 59.5322 17.5811H69.1814C69.2054 17.198 69.2054 16.9824 69.2054 16.7188C69.2054 12.8627 66.5295 10.7782 63.2879 10.7782C59.5563 10.7782 56.8793 13.4849 56.8793 17.0059C56.8793 20.6699 59.5552 23.2335 63.2879 23.2335ZM59.6537 15.6643C60.0464 13.8916 61.5934 13.0057 63.1895 13.0057C64.7604 13.0057 66.1848 13.9395 66.4792 15.6643H59.6537ZM83.2361 28V11.0174H80.535V12.6225C79.8479 11.6642 78.3744 10.7782 76.6064 10.7782C73.2423 10.7782 70.6889 13.581 70.6889 17.0059C70.6889 20.4308 73.2423 23.2335 76.6064 23.2335C78.3744 23.2335 79.8479 22.3476 80.535 21.3892V28H83.2361ZM77.0976 20.8374C74.9369 20.8374 73.4393 19.1607 73.4393 17.0048C73.4393 14.8489 74.9369 13.1722 77.0976 13.1722C79.2583 13.1722 80.756 14.8489 80.756 17.0048C80.756 19.1607 79.2583 20.8374 77.0976 20.8374ZM90.2247 23.2335C91.7958 23.2335 93.097 22.5867 93.81 21.3647V22.9934H96.5107V11.0174H93.81V16.9098C93.81 19.497 92.5822 20.8385 90.8139 20.8385C89.2437 20.8385 88.3593 19.6645 88.3593 17.7488V11.0174H85.6582V18.1799C85.6582 21.2452 87.4009 23.2335 90.2247 23.2335ZM104.958 23.2335C107.537 23.2335 109.451 22.179 110.556 20.4553L108.494 19.0177C107.83 20.0722 106.725 20.8385 104.983 20.8385C102.921 20.8385 101.325 19.5695 101.202 17.5811H110.851C110.875 17.198 110.875 16.9824 110.875 16.7188C110.875 12.8627 108.199 10.7782 104.958 10.7782C101.226 10.7782 98.5489 13.4849 98.5489 17.0059C98.5489 20.6699 101.225 23.2335 104.958 23.2335ZM101.323 15.6643C101.716 13.8916 103.263 13.0057 104.859 13.0057C106.43 13.0057 107.854 13.9395 108.149 15.6643H101.323ZM112.914 22.9934H115.616V17.1009C115.616 14.5138 116.99 13.1722 118.783 13.1722C120.354 13.1722 121.336 14.2982 121.336 16.2139V22.9923H124.037V15.7828C124.037 12.741 122.195 10.7761 119.347 10.7761C117.751 10.7761 116.376 11.4229 115.616 12.645V11.0174H112.914V22.9934ZM132.353 23.2335C134.907 23.2335 137.019 21.94 138.074 19.9282L135.717 18.6826C135.127 19.9046 133.925 20.7904 132.353 20.7904C130.168 20.7904 128.621 19.1373 128.621 17.0059C128.621 14.8745 130.168 13.2213 132.353 13.2213C133.924 13.2213 135.127 14.1072 135.717 15.3292L138.074 14.0837C137.019 12.0718 134.907 10.7782 132.353 10.7782C128.672 10.7782 125.872 13.4615 125.872 17.0059C125.872 20.5503 128.672 23.2335 132.353 23.2335ZM145.356 23.2335C147.935 23.2335 149.849 22.179 150.954 20.4553L148.892 19.0177C148.229 20.0722 147.124 20.8385 145.381 20.8385C143.318 20.8385 141.723 19.5695 141.599 17.5811H151.25C151.274 17.198 151.274 16.9824 151.274 16.7188C151.274 12.8627 148.598 10.7782 145.356 10.7782C141.623 10.7782 138.947 13.4849 138.947 17.0059C138.947 20.6699 141.623 23.2335 145.356 23.2335ZM141.721 15.6643C142.114 13.8916 143.661 13.0057 145.257 13.0057C146.828 13.0057 148.253 13.9395 148.547 15.6643H141.721Z" fill="white"/>
</g>
<path d="M159.371 22.5V5.38544H165.276C166.771 5.38544 167.992 5.84344 168.94 6.75943C169.905 7.67542 170.387 8.79228 170.387 10.11C170.387 11.5242 169.856 12.625 168.796 13.4124C170.628 14.1677 171.544 15.5256 171.544 17.4862C171.544 18.9164 171.021 20.1136 169.977 21.0778C168.948 22.0259 167.631 22.5 166.024 22.5H159.371ZM162.191 19.9208H165.951C166.851 19.9208 167.55 19.6958 168.048 19.2458C168.547 18.7959 168.796 18.2013 168.796 17.4621C168.796 16.7389 168.547 16.1523 168.048 15.7024C167.55 15.2364 166.851 15.0033 165.951 15.0033H162.191V19.9208ZM162.191 12.5928H165.132C165.887 12.5928 166.49 12.3759 166.94 11.942C167.39 11.5081 167.615 10.9537 167.615 10.2788C167.615 9.63596 167.39 9.08958 166.94 8.63962C166.49 8.18966 165.887 7.96468 165.132 7.96468H162.191V12.5928ZM183.472 20.9332C182.267 22.1384 180.772 22.7411 178.989 22.7411C177.205 22.7411 175.702 22.1384 174.481 20.9332C173.276 19.7119 172.673 18.2254 172.673 16.4737C172.673 14.7221 173.276 13.2437 174.481 12.0384C175.702 10.8171 177.205 10.2064 178.989 10.2064C180.772 10.2064 182.267 10.8171 183.472 12.0384C184.694 13.2437 185.304 14.7221 185.304 16.4737C185.304 18.2254 184.694 19.7119 183.472 20.9332ZM178.989 20.2823C180.033 20.2823 180.893 19.9208 181.568 19.1976C182.259 18.4584 182.604 17.5504 182.604 16.4737C182.604 15.3971 182.259 14.4971 181.568 13.774C180.893 13.0348 180.033 12.6652 178.989 12.6652C177.928 12.6652 177.052 13.0348 176.361 13.774C175.686 14.4971 175.349 15.3971 175.349 16.4737C175.349 17.5504 175.686 18.4584 176.361 19.1976C177.052 19.9208 177.928 20.2823 178.989 20.2823ZM188.574 7.82005C188.092 7.82005 187.674 7.65131 187.32 7.31384C186.967 6.9603 186.79 6.53445 186.79 6.03628C186.79 5.55417 186.967 5.14439 187.32 4.80692C187.674 4.45338 188.092 4.27661 188.574 4.27661C189.072 4.27661 189.49 4.45338 189.827 4.80692C190.165 5.14439 190.333 5.55417 190.333 6.03628C190.333 6.53445 190.165 6.9603 189.827 7.31384C189.49 7.65131 189.072 7.82005 188.574 7.82005ZM187.248 22.5V10.4475H189.899V22.5H187.248ZM192.739 22.5V4.42124H195.391V22.5H192.739ZM203.678 22.7411C201.846 22.7411 200.336 22.1545 199.147 20.9814C197.974 19.8083 197.387 18.3057 197.387 16.4737C197.387 14.69 197.982 13.2035 199.171 12.0143C200.36 10.8091 201.863 10.2064 203.678 10.2064C205.35 10.2064 206.732 10.7368 207.825 11.7974C208.933 12.858 209.488 14.3204 209.488 16.1845C209.488 16.5059 209.48 16.7951 209.464 17.0523H199.99C200.055 18.0325 200.432 18.828 201.123 19.4387C201.814 20.0333 202.674 20.3305 203.703 20.3305C205.245 20.3305 206.394 19.7199 207.15 18.4986L209.174 19.9449C208.017 21.809 206.185 22.7411 203.678 22.7411ZM200.111 15.1239H206.812C206.667 14.2882 206.29 13.6374 205.679 13.1714C205.085 12.6893 204.386 12.4482 203.582 12.4482C202.746 12.4482 201.999 12.6812 201.34 13.1473C200.697 13.6133 200.288 14.2722 200.111 15.1239ZM211.49 22.5V10.4475H214.142V12.5928C214.367 11.9179 214.777 11.3715 215.371 10.9537C215.982 10.5359 216.633 10.327 217.324 10.327C217.742 10.327 218.087 10.3591 218.36 10.4234V13.1473C217.975 13.0026 217.533 12.9303 217.035 12.9303C216.231 12.9303 215.548 13.2597 214.986 13.9186C214.423 14.5614 214.142 15.4613 214.142 16.6184V22.5H211.49ZM222.576 27.5379H219.924V10.4475H222.576V12.0625C222.945 11.5483 223.476 11.1144 224.167 10.7609C224.874 10.3912 225.637 10.2064 226.457 10.2064C228.096 10.2064 229.47 10.8171 230.579 12.0384C231.704 13.2597 232.266 14.7382 232.266 16.4737C232.266 18.2093 231.704 19.6877 230.579 20.9091C229.47 22.1304 228.096 22.7411 226.457 22.7411C225.637 22.7411 224.874 22.5643 224.167 22.2107C223.476 21.8411 222.945 21.3992 222.576 20.885V27.5379ZM225.975 20.3305C227.019 20.3305 227.879 19.9609 228.554 19.2217C229.229 18.4825 229.566 17.5665 229.566 16.4737C229.566 15.381 229.229 14.465 228.554 13.7258C227.879 12.9866 227.019 12.6169 225.975 12.6169C224.914 12.6169 224.046 12.9866 223.371 13.7258C222.696 14.465 222.359 15.381 222.359 16.4737C222.359 17.5665 222.696 18.4825 223.371 19.2217C224.046 19.9609 224.914 20.3305 225.975 20.3305ZM234.243 22.5V4.42124H236.895V22.5H234.243ZM244.676 22.7411C243.037 22.7411 241.655 22.1304 240.53 20.9091C239.421 19.6877 238.867 18.2093 238.867 16.4737C238.867 14.7382 239.421 13.2597 240.53 12.0384C241.655 10.8171 243.037 10.2064 244.676 10.2064C245.496 10.2064 246.251 10.3912 246.942 10.7609C247.633 11.1144 248.163 11.5483 248.533 12.0625V10.4475H251.185V22.5H248.533V20.885C248.163 21.3992 247.633 21.8411 246.942 22.2107C246.251 22.5643 245.496 22.7411 244.676 22.7411ZM242.579 19.2217C243.254 19.9609 244.114 20.3305 245.158 20.3305C246.203 20.3305 247.063 19.9609 247.738 19.2217C248.412 18.4825 248.75 17.5665 248.75 16.4737C248.75 15.381 248.412 14.465 247.738 13.7258C247.063 12.9866 246.203 12.6169 245.158 12.6169C244.114 12.6169 243.254 12.9866 242.579 13.7258C241.904 14.465 241.567 15.381 241.567 16.4737C241.567 17.5665 241.904 18.4825 242.579 19.2217ZM259.284 22.6205C258.063 22.6205 257.067 22.2831 256.295 21.6081C255.54 20.9171 255.162 19.9208 255.162 18.6191V12.8098H252.656V10.4475H255.162V7.0969H257.814V10.4475H261.261V12.8098H257.814V18.1852C257.814 18.9244 257.975 19.4547 258.296 19.7761C258.618 20.0815 259.132 20.2341 259.839 20.2341C260.417 20.2341 260.891 20.1538 261.261 19.9931V22.3554C260.683 22.5321 260.024 22.6205 259.284 22.6205ZM268.335 22.7411C266.503 22.7411 264.993 22.1545 263.804 20.9814C262.631 19.8083 262.044 18.3057 262.044 16.4737C262.044 14.69 262.639 13.2035 263.828 12.0143C265.017 10.8091 266.52 10.2064 268.335 10.2064C270.007 10.2064 271.389 10.7368 272.482 11.7974C273.59 12.858 274.145 14.3204 274.145 16.1845C274.145 16.5059 274.137 16.7951 274.121 17.0523H264.647C264.712 18.0325 265.089 18.828 265.78 19.4387C266.471 20.0333 267.331 20.3305 268.36 20.3305C269.902 20.3305 271.051 19.7199 271.807 18.4986L273.831 19.9449C272.674 21.809 270.842 22.7411 268.335 22.7411ZM264.768 15.1239H271.469C271.324 14.2882 270.947 13.6374 270.336 13.1714C269.742 12.6893 269.043 12.4482 268.239 12.4482C267.403 12.4482 266.656 12.6812 265.997 13.1473C265.354 13.6133 264.945 14.2722 264.768 15.1239Z" fill="white" fill-opacity="0.6"/>
<defs>
<linearGradient id="paint0_linear_1_34" x1="17.5153" y1="3.57726e-06" x2="17.5153" y2="28.0291" gradientUnits="userSpaceOnUse">
<stop stop-color="#1D273D"/>
<stop offset="1" stop-color="#0D0F13"/>
</linearGradient>
<linearGradient id="paint1_linear_1_34" x1="5.7942" y1="8.72604" x2="8.1716" y2="5.54468" gradientUnits="userSpaceOnUse">
<stop stop-color="#4462FE"/>
<stop offset="1" stop-color="#7D69FA"/>
</linearGradient>
<linearGradient id="paint2_linear_1_34" x1="5.56242" y1="8.7517" x2="8.50439" y2="8.60077" gradientUnits="userSpaceOnUse">
<stop stop-color="#3757FD"/>
<stop offset="1" stop-color="#6980FA"/>
</linearGradient>
<linearGradient id="paint3_linear_1_34" x1="5.56242" y1="8.7517" x2="8.50439" y2="8.60077" gradientUnits="userSpaceOnUse">
<stop stop-color="#2447FF"/>
<stop offset="1" stop-color="#6980FA"/>
</linearGradient>
<linearGradient id="paint4_linear_1_34" x1="5.74997" y1="22.1677" x2="8.08525" y2="19.6913" gradientUnits="userSpaceOnUse">
<stop stop-color="#BC3EE6"/>
<stop offset="1" stop-color="#D972F1"/>
</linearGradient>
<linearGradient id="paint5_linear_1_34" x1="26.9807" y1="15.1604" x2="29.1397" y2="12.8609" gradientUnits="userSpaceOnUse">
<stop stop-color="#29BDFF"/>
<stop offset="1" stop-color="#96E7FB"/>
</linearGradient>
<linearGradient id="paint6_linear_1_34" x1="26.5543" y1="15.7261" x2="29.5962" y2="15.5799" gradientUnits="userSpaceOnUse">
<stop stop-color="#23BBFF"/>
<stop offset="1" stop-color="#85E7FF"/>
</linearGradient>
<linearGradient id="paint7_linear_1_34" x1="13.6672" y1="8.72604" x2="28.0807" y2="5.26491" gradientUnits="userSpaceOnUse">
<stop stop-color="#23BBFF"/>
<stop offset="1" stop-color="#85E7FF"/>
</linearGradient>
<linearGradient id="paint8_linear_1_34" x1="13.7999" y1="22.7406" x2="27.6379" y2="19.1909" gradientUnits="userSpaceOnUse">
<stop stop-color="#2447FF"/>
<stop offset="1" stop-color="#6980FA"/>
</linearGradient>
<linearGradient id="paint9_linear_1_34" x1="7.60765" y1="15.7774" x2="20.8262" y2="12.2278" gradientUnits="userSpaceOnUse">
<stop stop-color="#6634FF"/>
<stop offset="1" stop-color="#9C6DFF"/>
</linearGradient>
<clipPath id="clip0_1_34">
<rect width="151.273" height="28" fill="white"/>
</clipPath>
</defs>
</svg>
